Coordinates
version=1
nRows=26
nColumns=24
inDegrees=yes

Units are S.I. units (second, meters, Newtons, ...)
Angles are in degrees.

endheader
time	pelvis_tilt	pelvis_list	pelvis_rotation	pelvis_tx	pelvis_ty	pelvis_tz	hip_flexion_r	hip_adduction_r	hip_rotation_r	knee_angle_r	ankle_angle_r	subtalar_angle_r	mtp_angle_r	hip_flexion_l	hip_adduction_l	hip_rotation_l	knee_angle_l	ankle_angle_l	subtalar_angle_l	mtp_angle_l	lumbar_extension	lumbar_bending	lumbar_rotation
      3.39000000	    -12.55737790	     -4.04548368	    -12.80742426	     -2.02295449	     -0.05547108	      0.45798090	     -3.25886870	      8.04781824	     15.71820116	    -23.83071959	      2.40847576	     16.78741991	     12.34614706	     43.73834174	     -9.76616883	      0.51825643	    -18.44944865	     -1.83686147	     23.22468179	     17.19992568	      8.44906937	      7.34921857	     15.84783334
      3.39500000	    -12.55278927	     -3.72137297	    -12.87807698	     -2.01391161	     -0.05616956	      0.45742748	     -3.10101956	      7.46718758	     14.93374844	    -24.75723688	      1.24804133	     17.93785630	     13.67446099	     43.69430265	     -9.44985734	      0.22242926	    -19.06124262	     -2.21165651	     23.06842879	     17.57123937	      8.67033211	      7.03288759	     15.95123054
      3.40000000	    -12.53369110	     -3.32631674	    -12.86875790	     -2.00468326	     -0.05680317	      0.45679464	     -2.94556179	      6.80570804	     14.16525973	    -25.62229650	     -0.23414236	     18.86157764	     15.55709886	     43.63104439	     -9.00136675	     -0.08967807	    -19.67565030	     -2.78808858	     22.71609730	     18.00663254	      8.92465995	      6.61901615	     15.87516408
      3.40500000	    -12.50771591	     -2.92585305	    -12.87309631	     -1.99545953	     -0.05741970	      0.45616733	     -2.73568492	      6.12715645	     13.37199010	    -26.58266722	     -1.75478981	     19.85194338	     17.21006208	     43.56738745	     -8.55455350	     -0.40448794	    -20.36279271	     -3.30562092	     22.41117237	     18.32023032	      9.16781054	      6.20366426	     15.86855163
      3.41000000	    -12.45928240	     -2.51083316	    -12.86926433	     -1.98620741	     -0.05798386	      0.45554203	     -2.50020326	      5.41969326	     12.55751396	    -27.58534681	     -3.44736591	     20.77965442	     18.94289925	     43.48100232	     -8.08748982	     -0.74492681	    -21.08794144	     -3.80579831	     22.14425827	     18.62585015	      9.39046679	      5.76303863	     15.84830948
      3.41500000	    -12.45450305	     -2.05393333	    -12.88706228	     -1.97698194	     -0.05859149	      0.45488331	     -2.12826700	      4.66703995	     11.75394323	    -28.76688373	     -4.94531380	     21.92437013	     19.83996376	     43.45445609	     -7.59137118	     -1.11215616	    -21.87697519	     -4.24599326	     21.79240008	     18.65003954	      9.65901653	      5.30269184	     15.83565251
      3.42000000	    -12.36005016	     -1.55479279	    -12.80207000	     -1.96760997	     -0.05900149	      0.45416625	     -1.86616658	      3.85500337	     10.93678835	    -29.78115862	     -7.06791836	     22.49324308	     21.85613911	     43.29317811	     -6.93931038	     -1.27457740	    -22.58180403	     -4.86320972	     21.19526510	     18.75986897	      9.86962055	      4.74085796	     15.75377085
      3.42500000	    -12.32316925	     -1.03938806	    -12.76402845	     -1.95833937	     -0.05948539	      0.45346441	     -1.44182715	      3.02380328	     10.12082986	    -30.99297554	     -8.97946487	     23.28752503	     23.00427456	     43.21292874	     -6.31810567	     -1.50437520	    -23.35655350	     -5.29816523	     20.73540453	     18.69795174	     10.11957151	      4.19555784	     15.75350771
      3.43000000	    -12.28129354	     -0.50814167	    -12.69974753	     -1.94913375	     -0.05994863	      0.45273787	     -0.96809960	      2.17835595	      9.34930880	    -32.28412973	    -10.87757988	     24.05562375	     23.82031078	     43.14936283	     -5.66802171	     -1.81751683	    -24.15851933	     -5.70369257	     20.27322415	     18.55436784	     10.35760409	      3.61931864	     15.65364050
      3.43500000	    -12.16626944	      0.03332266	    -12.58362142	     -1.93986705	     -0.06025207	      0.45200808	     -0.56739975	      1.31434813	      8.57652952	    -33.49907752	    -13.14943587	     24.34923299	     25.04441889	     42.97133085	     -4.93201182	     -1.94591415	    -24.91042779	     -6.05801473	     19.74494636	     18.36691447	     10.52718052	      3.00157675	     15.55381989
      3.44000000	    -12.13150525	      0.60072187	    -12.49278682	     -1.93075433	     -0.06064807	      0.45126288	      0.01823737	      0.43904430	      7.86806775	    -34.90612041	    -15.12850574	     24.81375749	     25.36984835	     42.90624717	     -4.20611564	     -2.17637352	    -25.69572980	     -6.35649130	     19.19856404	     18.08580797	     10.76608005	      2.38615285	     15.44391468
      3.44500000	    -12.07030979	      1.19035293	    -12.35243390	     -1.92159877	     -0.06095251	      0.45060695	      0.59187218	     -0.43263663	      7.22608893	    -36.32014016	    -17.17217348	     24.95359302	     25.43349355	     42.78286081	     -3.42340131	     -2.34666307	    -26.42739982	     -6.54453960	     18.74295926	     17.82598237	     10.99118724	      1.70111717	     15.28865115
      3.45000000	    -11.98182549	      1.75777815	    -12.20292695	     -1.91259837	     -0.06121392	      0.44979918	      1.19366693	     -1.31170092	      6.55887528	    -37.77774274	    -19.21350342	     25.03117682	     25.49460269	     42.63365181	     -2.61348784	     -2.44113756	    -27.15882399	     -6.68028672	     18.13772597	     17.45814763	     11.14678925	      1.05794620	     15.13828758
      3.45500000	    -11.86821671	      2.30501833	    -12.02529399	     -1.90374925	     -0.06145211	      0.44893967	      1.81574987	     -2.17885765	      5.87973040	    -39.28427219	    -21.18828679	     24.95656569	     25.45420730	     42.46327878	     -1.79070156	     -2.51915327	    -27.89214437	     -6.70035695	     17.55508474	     17.03586296	     11.23715455	      0.42258893	     14.98839666
      3.46000000	    -11.77719809	      2.86764385	    -11.85596866	     -1.89492242	     -0.06167070	      0.44829279	      2.49496699	     -3.01292199	      5.32130664	    -40.83590828	    -23.01669903	     24.65270812	     25.03497449	     42.28808530	     -1.00570627	     -2.69735311	    -28.56830863	     -6.57854375	     17.25223628	     16.91513333	     11.36394261	     -0.25094015	     14.81282279
      3.46500000	    -11.67881019	      3.41537419	    -11.63626718	     -1.88616053	     -0.06179802	      0.44738842	      3.18785416	     -3.83932131	      4.79561479	    -42.38343829	    -24.77632543	     24.25990550	     24.52708186	     42.07812557	     -0.11746101	     -2.64473703	    -29.20052552	     -6.49092763	     16.52641876	     16.38775262	     11.46070790	     -0.88805351	     14.58292443
      3.47000000	    -11.56801661	      3.95538037	    -11.40468143	     -1.87752018	     -0.06190942	      0.44657323	      3.90693329	     -4.64354901	      4.29533142	    -43.97439769	    -26.33040208	     23.72703499	     23.88935452	     41.84302675	      0.74267285	     -2.67196517	    -29.80597855	     -6.24063091	     16.04298960	     15.99924844	     11.52195134	     -1.53980646	     14.35094787
      3.47500000	    -11.46337687	      4.50479172	    -11.16006068	     -1.86897017	     -0.06201108	      0.44585062	      4.66482646	     -5.43479131	      3.84686390	    -45.58597707	    -27.67223133	     23.08726079	     23.30111299	     41.58684150	      1.59396284	     -2.74024980	    -30.34577327	     -5.90672753	     15.74113848	     15.85229422	     11.57951762	     -2.22144582	     14.10175373
      3.48000000	    -11.34908726	      4.96779869	    -10.89210274	     -1.86053096	     -0.06198603	      0.44494845	      5.42282021	     -6.12085198	      3.44653211	    -47.19124008	    -28.88711856	     22.29009690	     22.41050403	     41.28889447	      2.44109672	     -2.65162872	    -30.86370568	     -5.54662365	     15.14027980	     15.34644319	     11.58332835	     -2.78531233	     13.81971300
      3.48500000	    -11.23619513	      5.44713082	    -10.61443110	     -1.85218380	     -0.06194886	      0.44414990	      6.21439263	     -6.80239807	      3.09067084	    -48.81211494	    -29.82793929	     21.44234585	     21.62286836	     40.96228077	      3.27559778	     -2.62531499	    -31.31983105	     -5.06162899	     14.78900038	     15.01392538	     11.58199440	     -3.38766825	     13.52324541
      3.49000000	    -11.12672892	      5.88518116	    -10.28061793	     -1.84392257	     -0.06189114	      0.44331528	      7.01530415	     -7.42524738	      2.73636877	    -50.45373112	    -30.38873824	     20.63677768	     20.62055221	     40.61699849	      4.10628725	     -2.53200998	    -31.77470997	     -4.36132182	     14.59688778	     14.44129290	     11.55551804	     -3.96081768	     13.16236046
      3.49500000	    -11.01062156	      6.31704060	    -10.01610444	     -1.83581743	     -0.06170585	      0.44259048	      7.85252121	     -8.00558600	      2.50127029	    -52.02943852	    -31.01626335	     19.58918840	     20.25329836	     40.21171518	      4.87196588	     -2.53362919	    -32.08523774	     -3.88904856	     14.29467387	     14.37938958	     11.50386465	     -4.51202412	     12.87906077
      3.50000000	    -10.90217692	      6.70550726	     -9.69859002	     -1.82769968	     -0.06145473	      0.44177931	      8.68498241	     -8.53256117	      2.24630859	    -53.56443273	    -31.41521676	     18.51600320	     19.88858185	     39.76089246	      5.64504001	     -2.42670894	    -32.33388621	     -3.32100768	     14.01661059	     14.24850109	     11.45219863	     -5.01395551	     12.52304658
      3.50500000	    -10.79045374	      7.06074567	     -9.37338203	     -1.81970336	     -0.06112601	      0.44100536	      9.53075836	     -9.00227542	      2.02074495	    -55.07311537	    -31.59636689	     17.43006614	     19.65262046	     39.27300001	      6.38043038	     -2.31212446	    -32.53266035	     -2.72412590	     13.80814041	     14.12015401	     11.37300054	     -5.49057912	     12.15883051
      3.51000000	    -10.67732484	      7.39749695	     -9.04255528	     -1.81178807	     -0.06070312	      0.44025634	     10.39088339	     -9.43268510	      1.83464984	    -56.53809839	    -31.61363209	     16.38498783	     19.59351558	     38.74176642	      7.09106258	     -2.18712155	    -32.66194701	     -2.13430239	     13.67610390	     14.05850646	     11.27515351	     -5.95282172	     11.77237985
      3.51500000	    -10.56796149	      7.67964836	     -8.71377130	     -1.80388848	     -0.06019266	      0.43946919	     11.24954908	     -9.79472780	      1.64116033	    -57.93684973	    -31.44329278	     15.23380964	     19.65724839	     38.15811891	      7.75604874	     -2.01898103	    -32.72310718	     -1.49645737	     13.52398790	     13.94453268	     11.17586065	     -6.32939423	     11.38981823
